<?xml version="1.0" encoding="utf-8" standalone="no"?>
<!DOCTYPE svg PUBLIC "-//W3C//DTD SVG 1.1//EN"
  "http://www.w3.org/Graphics/SVG/1.1/DTD/svg11.dtd">
<svg xmlns:xlink="http://www.w3.org/1999/xlink" width="576pt" height="360pt" viewBox="0 0 576 360" xmlns="http://www.w3.org/2000/svg" version="1.1">
 <metadata>
  <rdf:RDF xmlns:dc="http://purl.org/dc/elements/1.1/" xmlns:cc="http://creativecommons.org/ns#" xmlns:rdf="http://www.w3.org/1999/02/22-rdf-syntax-ns#">
   <cc:Work>
    <dc:type rdf:resource="http://purl.org/dc/dcmitype/StillImage"/>
    <dc:date>2026-07-08T09:49:47.330050</dc:date>
    <dc:format>image/svg+xml</dc:format>
    <dc:creator>
     <cc:Agent>
      <dc:title>Matplotlib v3.10.6, https://matplotlib.org/</dc:title>
     </cc:Agent>
    </dc:creator>
   </cc:Work>
  </rdf:RDF>
 </metadata>
 <defs>
  <style type="text/css">*{stroke-linejoin: round; stroke-linecap: butt}</style>
 </defs>
 <g id="figure_1">
  <g id="patch_1">
   <path d="M 0 360
L 576 360
L 576 0
L 0 0
z
" style="fill: #ffffff"/>
  </g>
  <g id="axes_1">
   <g id="patch_2">
    <path d="M 58.896803 311.523479
L 572.99976 311.523479
L 572.99976 19.919771
L 58.896803 19.919771
z
" style="fill: #ffffff"/>
   </g>
   <g id="matplotlib.axis_1">
    <g id="xtick_1">
     <g id="text_1">
      <!-- Native SkLearn -->
      <g style="fill: #262626" transform="translate(131.020901 335.833869) scale(0.165 -0.165)">
       <defs>
        <path id="ArialMT-4e" d="M 488 0
L 488 4581
L 1109 4581
L 3516 984
L 3516 4581
L 4097 4581
L 4097 0
L 3475 0
L 1069 3600
L 1069 0
L 488 0
z
" transform="scale(0.015625)"/>
        <path id="ArialMT-61" d="M 2588 409
Q 2275 144 1986 34
Q 1697 -75 1366 -75
Q 819 -75 525 192
Q 231 459 231 875
Q 231 1119 342 1320
Q 453 1522 633 1644
Q 813 1766 1038 1828
Q 1203 1872 1538 1913
Q 2219 1994 2541 2106
Q 2544 2222 2544 2253
Q 2544 2597 2384 2738
Q 2169 2928 1744 2928
Q 1347 2928 1158 2789
Q 969 2650 878 2297
L 328 2372
Q 403 2725 575 2942
Q 747 3159 1072 3276
Q 1397 3394 1825 3394
Q 2250 3394 2515 3294
Q 2781 3194 2906 3042
Q 3031 2891 3081 2659
Q 3109 2516 3109 2141
L 3109 1391
Q 3109 606 3145 398
Q 3181 191 3288 0
L 2700 0
Q 2613 175 2588 409
z
M 2541 1666
Q 2234 1541 1622 1453
Q 1275 1403 1131 1340
Q 988 1278 909 1158
Q 831 1038 831 891
Q 831 666 1001 516
Q 1172 366 1500 366
Q 1825 366 2078 508
Q 2331 650 2450 897
Q 2541 1088 2541 1459
L 2541 1666
z
" transform="scale(0.015625)"/>
        <path id="ArialMT-74" d="M 1650 503
L 1731 6
Q 1494 -44 1306 -44
Q 1000 -44 831 53
Q 663 150 594 308
Q 525 466 525 972
L 525 2881
L 113 2881
L 113 3319
L 525 3319
L 525 4141
L 1084 4478
L 1084 3319
L 1650 3319
L 1650 2881
L 1084 2881
L 1084 941
Q 1084 700 1114 631
Q 1144 563 1211 522
Q 1278 481 1403 481
Q 1497 481 1650 503
z
" transform="scale(0.015625)"/>
        <path id="ArialMT-69" d="M 425 3934
L 425 4581
L 988 4581
L 988 3934
L 425 3934
z
M 425 0
L 425 3319
L 988 3319
L 988 0
L 425 0
z
" transform="scale(0.015625)"/>
        <path id="ArialMT-76" d="M 1344 0
L 81 3319
L 675 3319
L 1388 1331
Q 1503 1009 1600 663
Q 1675 925 1809 1294
L 2547 3319
L 3125 3319
L 1869 0
L 1344 0
z
" transform="scale(0.015625)"/>
        <path id="ArialMT-65" d="M 2694 1069
L 3275 997
Q 3138 488 2766 206
Q 2394 -75 1816 -75
Q 1088 -75 661 373
Q 234 822 234 1631
Q 234 2469 665 2931
Q 1097 3394 1784 3394
Q 2450 3394 2872 2941
Q 3294 2488 3294 1666
Q 3294 1616 3291 1516
L 816 1516
Q 847 969 1125 678
Q 1403 388 1819 388
Q 2128 388 2347 550
Q 2566 713 2694 1069
z
M 847 1978
L 2700 1978
Q 2663 2397 2488 2606
Q 2219 2931 1791 2931
Q 1403 2931 1139 2672
Q 875 2413 847 1978
z
" transform="scale(0.015625)"/>
        <path id="ArialMT-20" transform="scale(0.015625)"/>
        <path id="ArialMT-53" d="M 288 1472
L 859 1522
Q 900 1178 1048 958
Q 1197 738 1509 602
Q 1822 466 2213 466
Q 2559 466 2825 569
Q 3091 672 3220 851
Q 3350 1031 3350 1244
Q 3350 1459 3225 1620
Q 3100 1781 2813 1891
Q 2628 1963 1997 2114
Q 1366 2266 1113 2400
Q 784 2572 623 2826
Q 463 3081 463 3397
Q 463 3744 659 4045
Q 856 4347 1234 4503
Q 1613 4659 2075 4659
Q 2584 4659 2973 4495
Q 3363 4331 3572 4012
Q 3781 3694 3797 3291
L 3216 3247
Q 3169 3681 2898 3903
Q 2628 4125 2100 4125
Q 1550 4125 1298 3923
Q 1047 3722 1047 3438
Q 1047 3191 1225 3031
Q 1400 2872 2139 2705
Q 2878 2538 3153 2413
Q 3553 2228 3743 1945
Q 3934 1663 3934 1294
Q 3934 928 3725 604
Q 3516 281 3123 101
Q 2731 -78 2241 -78
Q 1619 -78 1198 103
Q 778 284 539 648
Q 300 1013 288 1472
z
" transform="scale(0.015625)"/>
        <path id="ArialMT-6b" d="M 425 0
L 425 4581
L 988 4581
L 988 1969
L 2319 3319
L 3047 3319
L 1778 2088
L 3175 0
L 2481 0
L 1384 1697
L 988 1316
L 988 0
L 425 0
z
" transform="scale(0.015625)"/>
        <path id="ArialMT-4c" d="M 469 0
L 469 4581
L 1075 4581
L 1075 541
L 3331 541
L 3331 0
L 469 0
z
" transform="scale(0.015625)"/>
        <path id="ArialMT-72" d="M 416 0
L 416 3319
L 922 3319
L 922 2816
Q 1116 3169 1280 3281
Q 1444 3394 1641 3394
Q 1925 3394 2219 3213
L 2025 2691
Q 1819 2813 1613 2813
Q 1428 2813 1281 2702
Q 1134 2591 1072 2394
Q 978 2094 978 1738
L 978 0
L 416 0
z
" transform="scale(0.015625)"/>
        <path id="ArialMT-6e" d="M 422 0
L 422 3319
L 928 3319
L 928 2847
Q 1294 3394 1984 3394
Q 2284 3394 2536 3286
Q 2788 3178 2913 3003
Q 3038 2828 3088 2588
Q 3119 2431 3119 2041
L 3119 0
L 2556 0
L 2556 2019
Q 2556 2363 2490 2533
Q 2425 2703 2258 2804
Q 2091 2906 1866 2906
Q 1506 2906 1245 2678
Q 984 2450 984 1813
L 984 0
L 422 0
z
" transform="scale(0.015625)"/>
       </defs>
       <use xlink:href="#ArialMT-4e"/>
       <use xlink:href="#ArialMT-61" transform="translate(72.216797 0)"/>
       <use xlink:href="#ArialMT-74" transform="translate(127.832031 0)"/>
       <use xlink:href="#ArialMT-69" transform="translate(155.615234 0)"/>
       <use xlink:href="#ArialMT-76" transform="translate(177.832031 0)"/>
       <use xlink:href="#ArialMT-65" transform="translate(227.832031 0)"/>
       <use xlink:href="#ArialMT-20" transform="translate(283.447266 0)"/>
       <use xlink:href="#ArialMT-53" transform="translate(311.230469 0)"/>
       <use xlink:href="#ArialMT-6b" transform="translate(377.929688 0)"/>
       <use xlink:href="#ArialMT-4c" transform="translate(427.929688 0)"/>
       <use xlink:href="#ArialMT-65" transform="translate(483.544922 0)"/>
       <use xlink:href="#ArialMT-61" transform="translate(539.160156 0)"/>
       <use xlink:href="#ArialMT-72" transform="translate(594.775391 0)"/>
       <use xlink:href="#ArialMT-6e" transform="translate(628.076172 0)"/>
      </g>
      <!-- Gradient Boosting -->
      <g style="fill: #262626" transform="translate(121.386448 353.527026) scale(0.165 -0.165)">
       <defs>
        <path id="ArialMT-47" d="M 2638 1797
L 2638 2334
L 4578 2338
L 4578 638
Q 4131 281 3656 101
Q 3181 -78 2681 -78
Q 2006 -78 1454 211
Q 903 500 622 1047
Q 341 1594 341 2269
Q 341 2938 620 3517
Q 900 4097 1425 4378
Q 1950 4659 2634 4659
Q 3131 4659 3532 4498
Q 3934 4338 4162 4050
Q 4391 3763 4509 3300
L 3963 3150
Q 3859 3500 3706 3700
Q 3553 3900 3268 4020
Q 2984 4141 2638 4141
Q 2222 4141 1919 4014
Q 1616 3888 1430 3681
Q 1244 3475 1141 3228
Q 966 2803 966 2306
Q 966 1694 1177 1281
Q 1388 869 1791 669
Q 2194 469 2647 469
Q 3041 469 3416 620
Q 3791 772 3984 944
L 3984 1797
L 2638 1797
z
" transform="scale(0.015625)"/>
        <path id="ArialMT-64" d="M 2575 0
L 2575 419
Q 2259 -75 1647 -75
Q 1250 -75 917 144
Q 584 363 401 755
Q 219 1147 219 1656
Q 219 2153 384 2558
Q 550 2963 881 3178
Q 1213 3394 1622 3394
Q 1922 3394 2156 3267
Q 2391 3141 2538 2938
L 2538 4581
L 3097 4581
L 3097 0
L 2575 0
z
M 797 1656
Q 797 1019 1065 703
Q 1334 388 1700 388
Q 2069 388 2326 689
Q 2584 991 2584 1609
Q 2584 2291 2321 2609
Q 2059 2928 1675 2928
Q 1300 2928 1048 2622
Q 797 2316 797 1656
z
" transform="scale(0.015625)"/>
        <path id="ArialMT-42" d="M 469 0
L 469 4581
L 2188 4581
Q 2713 4581 3030 4442
Q 3347 4303 3526 4014
Q 3706 3725 3706 3409
Q 3706 3116 3547 2856
Q 3388 2597 3066 2438
Q 3481 2316 3704 2022
Q 3928 1728 3928 1328
Q 3928 1006 3792 729
Q 3656 453 3456 303
Q 3256 153 2954 76
Q 2653 0 2216 0
L 469 0
z
M 1075 2656
L 2066 2656
Q 2469 2656 2644 2709
Q 2875 2778 2992 2937
Q 3109 3097 3109 3338
Q 3109 3566 3000 3739
Q 2891 3913 2687 3977
Q 2484 4041 1991 4041
L 1075 4041
L 1075 2656
z
M 1075 541
L 2216 541
Q 2509 541 2628 563
Q 2838 600 2978 687
Q 3119 775 3209 942
Q 3300 1109 3300 1328
Q 3300 1584 3169 1773
Q 3038 1963 2805 2039
Q 2572 2116 2134 2116
L 1075 2116
L 1075 541
z
" transform="scale(0.015625)"/>
        <path id="ArialMT-6f" d="M 213 1659
Q 213 2581 725 3025
Q 1153 3394 1769 3394
Q 2453 3394 2887 2945
Q 3322 2497 3322 1706
Q 3322 1066 3130 698
Q 2938 331 2570 128
Q 2203 -75 1769 -75
Q 1072 -75 642 372
Q 213 819 213 1659
z
M 791 1659
Q 791 1022 1069 705
Q 1347 388 1769 388
Q 2188 388 2466 706
Q 2744 1025 2744 1678
Q 2744 2294 2464 2611
Q 2184 2928 1769 2928
Q 1347 2928 1069 2612
Q 791 2297 791 1659
z
" transform="scale(0.015625)"/>
        <path id="ArialMT-73" d="M 197 991
L 753 1078
Q 800 744 1014 566
Q 1228 388 1613 388
Q 2000 388 2187 545
Q 2375 703 2375 916
Q 2375 1106 2209 1216
Q 2094 1291 1634 1406
Q 1016 1563 777 1677
Q 538 1791 414 1992
Q 291 2194 291 2438
Q 291 2659 392 2848
Q 494 3038 669 3163
Q 800 3259 1026 3326
Q 1253 3394 1513 3394
Q 1903 3394 2198 3281
Q 2494 3169 2634 2976
Q 2775 2784 2828 2463
L 2278 2388
Q 2241 2644 2061 2787
Q 1881 2931 1553 2931
Q 1166 2931 1000 2803
Q 834 2675 834 2503
Q 834 2394 903 2306
Q 972 2216 1119 2156
Q 1203 2125 1616 2013
Q 2213 1853 2448 1751
Q 2684 1650 2818 1456
Q 2953 1263 2953 975
Q 2953 694 2789 445
Q 2625 197 2315 61
Q 2006 -75 1616 -75
Q 969 -75 630 194
Q 291 463 197 991
z
" transform="scale(0.015625)"/>
        <path id="ArialMT-67" d="M 319 -275
L 866 -356
Q 900 -609 1056 -725
Q 1266 -881 1628 -881
Q 2019 -881 2231 -725
Q 2444 -569 2519 -288
Q 2563 -116 2559 434
Q 2191 0 1641 0
Q 956 0 581 494
Q 206 988 206 1678
Q 206 2153 378 2554
Q 550 2956 876 3175
Q 1203 3394 1644 3394
Q 2231 3394 2613 2919
L 2613 3319
L 3131 3319
L 3131 450
Q 3131 -325 2973 -648
Q 2816 -972 2473 -1159
Q 2131 -1347 1631 -1347
Q 1038 -1347 672 -1080
Q 306 -813 319 -275
z
M 784 1719
Q 784 1066 1043 766
Q 1303 466 1694 466
Q 2081 466 2343 764
Q 2606 1063 2606 1700
Q 2606 2309 2336 2618
Q 2066 2928 1684 2928
Q 1309 2928 1046 2623
Q 784 2319 784 1719
z
" transform="scale(0.015625)"/>
       </defs>
       <use xlink:href="#ArialMT-47"/>
       <use xlink:href="#ArialMT-72" transform="translate(77.783203 0)"/>
       <use xlink:href="#ArialMT-61" transform="translate(111.083984 0)"/>
       <use xlink:href="#ArialMT-64" transform="translate(166.699219 0)"/>
       <use xlink:href="#ArialMT-69" transform="translate(222.314453 0)"/>
       <use xlink:href="#ArialMT-65" transform="translate(244.53125 0)"/>
       <use xlink:href="#ArialMT-6e" transform="translate(300.146484 0)"/>
       <use xlink:href="#ArialMT-74" transform="translate(355.761719 0)"/>
       <use xlink:href="#ArialMT-20" transform="translate(383.544922 0)"/>
       <use xlink:href="#ArialMT-42" transform="translate(411.328125 0)"/>
       <use xlink:href="#ArialMT-6f" transform="translate(478.027344 0)"/>
       <use xlink:href="#ArialMT-6f" transform="translate(533.642578 0)"/>
       <use xlink:href="#ArialMT-73" transform="translate(589.257812 0)"/>
       <use xlink:href="#ArialMT-74" transform="translate(639.257812 0)"/>
       <use xlink:href="#ArialMT-69" transform="translate(667.041016 0)"/>
       <use xlink:href="#ArialMT-6e" transform="translate(689.257812 0)"/>
       <use xlink:href="#ArialMT-67" transform="translate(744.873047 0)"/>
      </g>
     </g>
    </g>
    <g id="xtick_2">
     <g id="text_2">
      <!-- XGBoost -->
      <g style="fill: #262626" transform="translate(411.458552 335.833869) scale(0.165 -0.165)">
       <defs>
        <path id="ArialMT-58" d="M 28 0
L 1800 2388
L 238 4581
L 959 4581
L 1791 3406
Q 2050 3041 2159 2844
Q 2313 3094 2522 3366
L 3444 4581
L 4103 4581
L 2494 2422
L 4228 0
L 3478 0
L 2325 1634
Q 2228 1775 2125 1941
Q 1972 1691 1906 1597
L 756 0
L 28 0
z
" transform="scale(0.015625)"/>
       </defs>
       <use xlink:href="#ArialMT-58"/>
       <use xlink:href="#ArialMT-47" transform="translate(66.699219 0)"/>
       <use xlink:href="#ArialMT-42" transform="translate(144.482422 0)"/>
       <use xlink:href="#ArialMT-6f" transform="translate(211.181641 0)"/>
       <use xlink:href="#ArialMT-6f" transform="translate(266.796875 0)"/>
       <use xlink:href="#ArialMT-73" transform="translate(322.412109 0)"/>
       <use xlink:href="#ArialMT-74" transform="translate(372.412109 0)"/>
      </g>
     </g>
    </g>
   </g>
   <g id="matplotlib.axis_2">
    <g id="ytick_1">
     <g id="line2d_1">
      <path d="M 58.896803 311.523479
L 572.99976 311.523479
" clip-path="url(#p4e594478cc)" style="fill: none; stroke: #cccccc; stroke-opacity: 0.25; stroke-width: 1.5; stroke-linecap: round"/>
     </g>
     <g id="text_3">
      <!-- 0.0 -->
      <g style="fill: #262626" transform="translate(23.461803 317.428674) scale(0.165 -0.165)">
       <defs>
        <path id="ArialMT-30" d="M 266 2259
Q 266 3072 433 3567
Q 600 4063 929 4331
Q 1259 4600 1759 4600
Q 2128 4600 2406 4451
Q 2684 4303 2865 4023
Q 3047 3744 3150 3342
Q 3253 2941 3253 2259
Q 3253 1453 3087 958
Q 2922 463 2592 192
Q 2263 -78 1759 -78
Q 1097 -78 719 397
Q 266 969 266 2259
z
M 844 2259
Q 844 1131 1108 757
Q 1372 384 1759 384
Q 2147 384 2411 759
Q 2675 1134 2675 2259
Q 2675 3391 2411 3762
Q 2147 4134 1753 4134
Q 1366 4134 1134 3806
Q 844 3388 844 2259
z
" transform="scale(0.015625)"/>
        <path id="ArialMT-2e" d="M 581 0
L 581 641
L 1222 641
L 1222 0
L 581 0
z
" transform="scale(0.015625)"/>
       </defs>
       <use xlink:href="#ArialMT-30"/>
       <use xlink:href="#ArialMT-2e" transform="translate(55.615234 0)"/>
       <use xlink:href="#ArialMT-30" transform="translate(83.398438 0)"/>
      </g>
     </g>
    </g>
    <g id="ytick_2">
     <g id="line2d_2">
      <path d="M 58.896803 255.979915
L 572.99976 255.979915
" clip-path="url(#p4e594478cc)" style="fill: none; stroke: #cccccc; stroke-opacity: 0.25; stroke-width: 1.5; stroke-linecap: round"/>
     </g>
     <g id="text_4">
      <!-- 0.2 -->
      <g style="fill: #262626" transform="translate(23.461803 261.885111) scale(0.165 -0.165)">
       <defs>
        <path id="ArialMT-32" d="M 3222 541
L 3222 0
L 194 0
Q 188 203 259 391
Q 375 700 629 1000
Q 884 1300 1366 1694
Q 2113 2306 2375 2664
Q 2638 3022 2638 3341
Q 2638 3675 2398 3904
Q 2159 4134 1775 4134
Q 1369 4134 1125 3890
Q 881 3647 878 3216
L 300 3275
Q 359 3922 746 4261
Q 1134 4600 1788 4600
Q 2447 4600 2831 4234
Q 3216 3869 3216 3328
Q 3216 3053 3103 2787
Q 2991 2522 2730 2228
Q 2469 1934 1863 1422
Q 1356 997 1212 845
Q 1069 694 975 541
L 3222 541
z
" transform="scale(0.015625)"/>
       </defs>
       <use xlink:href="#ArialMT-30"/>
       <use xlink:href="#ArialMT-2e" transform="translate(55.615234 0)"/>
       <use xlink:href="#ArialMT-32" transform="translate(83.398438 0)"/>
      </g>
     </g>
    </g>
    <g id="ytick_3">
     <g id="line2d_3">
      <path d="M 58.896803 200.436352
L 572.99976 200.436352
" clip-path="url(#p4e594478cc)" style="fill: none; stroke: #cccccc; stroke-opacity: 0.25; stroke-width: 1.5; stroke-linecap: round"/>
     </g>
     <g id="text_5">
      <!-- 0.4 -->
      <g style="fill: #262626" transform="translate(23.461803 206.341547) scale(0.165 -0.165)">
       <defs>
        <path id="ArialMT-34" d="M 2069 0
L 2069 1097
L 81 1097
L 81 1613
L 2172 4581
L 2631 4581
L 2631 1613
L 3250 1613
L 3250 1097
L 2631 1097
L 2631 0
L 2069 0
z
M 2069 1613
L 2069 3678
L 634 1613
L 2069 1613
z
" transform="scale(0.015625)"/>
       </defs>
       <use xlink:href="#ArialMT-30"/>
       <use xlink:href="#ArialMT-2e" transform="translate(55.615234 0)"/>
       <use xlink:href="#ArialMT-34" transform="translate(83.398438 0)"/>
      </g>
     </g>
    </g>
    <g id="ytick_4">
     <g id="line2d_4">
      <path d="M 58.896803 144.892789
L 572.99976 144.892789
" clip-path="url(#p4e594478cc)" style="fill: none; stroke: #cccccc; stroke-opacity: 0.25; stroke-width: 1.5; stroke-linecap: round"/>
     </g>
     <g id="text_6">
      <!-- 0.6 -->
      <g style="fill: #262626" transform="translate(23.461803 150.797984) scale(0.165 -0.165)">
       <defs>
        <path id="ArialMT-36" d="M 3184 3459
L 2625 3416
Q 2550 3747 2413 3897
Q 2184 4138 1850 4138
Q 1581 4138 1378 3988
Q 1113 3794 959 3422
Q 806 3050 800 2363
Q 1003 2672 1297 2822
Q 1591 2972 1913 2972
Q 2475 2972 2870 2558
Q 3266 2144 3266 1488
Q 3266 1056 3080 686
Q 2894 316 2569 119
Q 2244 -78 1831 -78
Q 1128 -78 684 439
Q 241 956 241 2144
Q 241 3472 731 4075
Q 1159 4600 1884 4600
Q 2425 4600 2770 4297
Q 3116 3994 3184 3459
z
M 888 1484
Q 888 1194 1011 928
Q 1134 663 1356 523
Q 1578 384 1822 384
Q 2178 384 2434 671
Q 2691 959 2691 1453
Q 2691 1928 2437 2201
Q 2184 2475 1800 2475
Q 1419 2475 1153 2201
Q 888 1928 888 1484
z
" transform="scale(0.015625)"/>
       </defs>
       <use xlink:href="#ArialMT-30"/>
       <use xlink:href="#ArialMT-2e" transform="translate(55.615234 0)"/>
       <use xlink:href="#ArialMT-36" transform="translate(83.398438 0)"/>
      </g>
     </g>
    </g>
    <g id="ytick_5">
     <g id="line2d_5">
      <path d="M 58.896803 89.349225
L 572.99976 89.349225
" clip-path="url(#p4e594478cc)" style="fill: none; stroke: #cccccc; stroke-opacity: 0.25; stroke-width: 1.5; stroke-linecap: round"/>
     </g>
     <g id="text_7">
      <!-- 0.8 -->
      <g style="fill: #262626" transform="translate(23.461803 95.254421) scale(0.165 -0.165)">
       <defs>
        <path id="ArialMT-38" d="M 1131 2484
Q 781 2613 612 2850
Q 444 3088 444 3419
Q 444 3919 803 4259
Q 1163 4600 1759 4600
Q 2359 4600 2725 4251
Q 3091 3903 3091 3403
Q 3091 3084 2923 2848
Q 2756 2613 2416 2484
Q 2838 2347 3058 2040
Q 3278 1734 3278 1309
Q 3278 722 2862 322
Q 2447 -78 1769 -78
Q 1091 -78 675 323
Q 259 725 259 1325
Q 259 1772 486 2073
Q 713 2375 1131 2484
z
M 1019 3438
Q 1019 3113 1228 2906
Q 1438 2700 1772 2700
Q 2097 2700 2305 2904
Q 2513 3109 2513 3406
Q 2513 3716 2298 3927
Q 2084 4138 1766 4138
Q 1444 4138 1231 3931
Q 1019 3725 1019 3438
z
M 838 1322
Q 838 1081 952 856
Q 1066 631 1291 507
Q 1516 384 1775 384
Q 2178 384 2440 643
Q 2703 903 2703 1303
Q 2703 1709 2433 1975
Q 2163 2241 1756 2241
Q 1359 2241 1098 1978
Q 838 1716 838 1322
z
" transform="scale(0.015625)"/>
       </defs>
       <use xlink:href="#ArialMT-30"/>
       <use xlink:href="#ArialMT-2e" transform="translate(55.615234 0)"/>
       <use xlink:href="#ArialMT-38" transform="translate(83.398438 0)"/>
      </g>
     </g>
    </g>
    <g id="ytick_6">
     <g id="line2d_6">
      <path d="M 58.896803 33.805662
L 572.99976 33.805662
" clip-path="url(#p4e594478cc)" style="fill: none; stroke: #cccccc; stroke-opacity: 0.25; stroke-width: 1.5; stroke-linecap: round"/>
     </g>
     <g id="text_8">
      <!-- 1.0 -->
      <g style="fill: #262626" transform="translate(23.461803 39.710857) scale(0.165 -0.165)">
       <defs>
        <path id="ArialMT-31" d="M 2384 0
L 1822 0
L 1822 3584
Q 1619 3391 1289 3197
Q 959 3003 697 2906
L 697 3450
Q 1169 3672 1522 3987
Q 1875 4303 2022 4600
L 2384 4600
L 2384 0
z
" transform="scale(0.015625)"/>
       </defs>
       <use xlink:href="#ArialMT-31"/>
       <use xlink:href="#ArialMT-2e" transform="translate(55.615234 0)"/>
       <use xlink:href="#ArialMT-30" transform="translate(83.398438 0)"/>
      </g>
     </g>
    </g>
    <g id="text_9">
     <!-- Mean cross-validation F1 score -->
     <g style="fill: #262626" transform="translate(15.884302 290.763969) rotate(-90) scale(0.18 -0.18)">
      <defs>
       <path id="ArialMT-4d" d="M 475 0
L 475 4581
L 1388 4581
L 2472 1338
Q 2622 884 2691 659
Q 2769 909 2934 1394
L 4031 4581
L 4847 4581
L 4847 0
L 4263 0
L 4263 3834
L 2931 0
L 2384 0
L 1059 3900
L 1059 0
L 475 0
z
" transform="scale(0.015625)"/>
       <path id="ArialMT-63" d="M 2588 1216
L 3141 1144
Q 3050 572 2676 248
Q 2303 -75 1759 -75
Q 1078 -75 664 370
Q 250 816 250 1647
Q 250 2184 428 2587
Q 606 2991 970 3192
Q 1334 3394 1763 3394
Q 2303 3394 2647 3120
Q 2991 2847 3088 2344
L 2541 2259
Q 2463 2594 2264 2762
Q 2066 2931 1784 2931
Q 1359 2931 1093 2626
Q 828 2322 828 1663
Q 828 994 1084 691
Q 1341 388 1753 388
Q 2084 388 2306 591
Q 2528 794 2588 1216
z
" transform="scale(0.015625)"/>
       <path id="ArialMT-2d" d="M 203 1375
L 203 1941
L 1931 1941
L 1931 1375
L 203 1375
z
" transform="scale(0.015625)"/>
       <path id="ArialMT-6c" d="M 409 0
L 409 4581
L 972 4581
L 972 0
L 409 0
z
" transform="scale(0.015625)"/>
       <path id="ArialMT-46" d="M 525 0
L 525 4581
L 3616 4581
L 3616 4041
L 1131 4041
L 1131 2622
L 3281 2622
L 3281 2081
L 1131 2081
L 1131 0
L 525 0
z
" transform="scale(0.015625)"/>
      </defs>
      <use xlink:href="#ArialMT-4d"/>
      <use xlink:href="#ArialMT-65" transform="translate(83.300781 0)"/>
      <use xlink:href="#ArialMT-61" transform="translate(138.916016 0)"/>
      <use xlink:href="#ArialMT-6e" transform="translate(194.53125 0)"/>
      <use xlink:href="#ArialMT-20" transform="translate(250.146484 0)"/>
      <use xlink:href="#ArialMT-63" transform="translate(277.929688 0)"/>
      <use xlink:href="#ArialMT-72" transform="translate(327.929688 0)"/>
      <use xlink:href="#ArialMT-6f" transform="translate(361.230469 0)"/>
      <use xlink:href="#ArialMT-73" transform="translate(416.845703 0)"/>
      <use xlink:href="#ArialMT-73" transform="translate(466.845703 0)"/>
      <use xlink:href="#ArialMT-2d" transform="translate(516.845703 0)"/>
      <use xlink:href="#ArialMT-76" transform="translate(550.146484 0)"/>
      <use xlink:href="#ArialMT-61" transform="translate(600.146484 0)"/>
      <use xlink:href="#ArialMT-6c" transform="translate(655.761719 0)"/>
      <use xlink:href="#ArialMT-69" transform="translate(677.978516 0)"/>
      <use xlink:href="#ArialMT-64" transform="translate(700.195312 0)"/>
      <use xlink:href="#ArialMT-61" transform="translate(755.810547 0)"/>
      <use xlink:href="#ArialMT-74" transform="translate(811.425781 0)"/>
      <use xlink:href="#ArialMT-69" transform="translate(839.208984 0)"/>
      <use xlink:href="#ArialMT-6f" transform="translate(861.425781 0)"/>
      <use xlink:href="#ArialMT-6e" transform="translate(917.041016 0)"/>
      <use xlink:href="#ArialMT-20" transform="translate(972.65625 0)"/>
      <use xlink:href="#ArialMT-46" transform="translate(1000.439453 0)"/>
      <use xlink:href="#ArialMT-31" transform="translate(1061.523438 0)"/>
      <use xlink:href="#ArialMT-20" transform="translate(1117.138672 0)"/>
      <use xlink:href="#ArialMT-73" transform="translate(1144.921875 0)"/>
      <use xlink:href="#ArialMT-63" transform="translate(1194.921875 0)"/>
      <use xlink:href="#ArialMT-6f" transform="translate(1244.921875 0)"/>
      <use xlink:href="#ArialMT-72" transform="translate(1300.537109 0)"/>
      <use xlink:href="#ArialMT-65" transform="translate(1333.837891 0)"/>
     </g>
    </g>
   </g>
   <g id="patch_3">
    <path d="M 84.60195 311.523479
L 290.243133 311.523479
L 290.243133 38.03416
L 84.60195 38.03416
z
" clip-path="url(#p4e594478cc)" style="fill: #3d6682; stroke: #263238; stroke-width: 0.7; stroke-linejoin: miter"/>
   </g>
   <g id="patch_4">
    <path d="M 341.653429 311.523479
L 547.294612 311.523479
L 547.294612 46.089483
L 341.653429 46.089483
z
" clip-path="url(#p4e594478cc)" style="fill: #cb7f4e; stroke: #263238; stroke-width: 0.7; stroke-linejoin: miter"/>
   </g>
   <g id="line2d_7">
    <path clip-path="url(#p4e594478cc)" style="fill: none; stroke: #424242; stroke-width: 3.375; stroke-linecap: round"/>
   </g>
   <g id="line2d_8">
    <path clip-path="url(#p4e594478cc)" style="fill: none; stroke: #424242; stroke-width: 3.375; stroke-linecap: round"/>
   </g>
   <g id="LineCollection_1">
    <path d="M 187.422542 38.855077
L 187.422542 37.213243
" clip-path="url(#p4e594478cc)" style="fill: none; stroke: #263238; stroke-width: 1.4"/>
   </g>
   <g id="line2d_9">
    <defs>
     <path id="m542508bcc9" d="M 5 0
L -5 -0
" style="stroke: #263238"/>
    </defs>
    <g clip-path="url(#p4e594478cc)">
     <use xlink:href="#m542508bcc9" x="187.422542" y="38.855077" style="fill: #263238; stroke: #263238"/>
    </g>
   </g>
   <g id="line2d_10">
    <g clip-path="url(#p4e594478cc)">
     <use xlink:href="#m542508bcc9" x="187.422542" y="37.213243" style="fill: #263238; stroke: #263238"/>
    </g>
   </g>
   <g id="LineCollection_2">
    <path d="M 444.474021 51.640751
L 444.474021 40.538215
" clip-path="url(#p4e594478cc)" style="fill: none; stroke: #263238; stroke-width: 1.4"/>
   </g>
   <g id="line2d_11">
    <g clip-path="url(#p4e594478cc)">
     <use xlink:href="#m542508bcc9" x="444.474021" y="51.640751" style="fill: #263238; stroke: #263238"/>
    </g>
   </g>
   <g id="line2d_12">
    <g clip-path="url(#p4e594478cc)">
     <use xlink:href="#m542508bcc9" x="444.474021" y="40.538215" style="fill: #263238; stroke: #263238"/>
    </g>
   </g>
   <g id="patch_5">
    <path d="M 58.896803 311.523479
L 58.896803 19.919771
" style="fill: none; stroke: #cccccc; stroke-width: 1.875; stroke-linejoin: miter; stroke-linecap: square"/>
   </g>
   <g id="patch_6">
    <path d="M 572.99976 311.523479
L 572.99976 19.919771
" style="fill: none; stroke: #cccccc; stroke-width: 1.875; stroke-linejoin: miter; stroke-linecap: square"/>
   </g>
   <g id="patch_7">
    <path d="M 58.896803 311.523479
L 572.99976 311.523479
" style="fill: none; stroke: #cccccc; stroke-width: 1.875; stroke-linejoin: miter; stroke-linecap: square"/>
   </g>
   <g id="patch_8">
    <path d="M 58.896803 19.919771
L 572.99976 19.919771
" style="fill: none; stroke: #cccccc; stroke-width: 1.875; stroke-linejoin: miter; stroke-linecap: square"/>
   </g>
   <g id="text_10">
    <!-- 0.985 -->
    <g style="fill: #262626" transform="translate(172.409417 27.902172) scale(0.12 -0.12)">
     <defs>
      <path id="Arial-BoldMT-30" d="M 1756 4600
Q 2422 4600 2797 4125
Q 3244 3563 3244 2259
Q 3244 959 2794 391
Q 2422 -78 1756 -78
Q 1088 -78 678 436
Q 269 950 269 2269
Q 269 3563 719 4131
Q 1091 4600 1756 4600
z
M 1756 3872
Q 1597 3872 1472 3770
Q 1347 3669 1278 3406
Q 1188 3066 1188 2259
Q 1188 1453 1269 1151
Q 1350 850 1473 750
Q 1597 650 1756 650
Q 1916 650 2041 751
Q 2166 853 2234 1116
Q 2325 1453 2325 2259
Q 2325 3066 2244 3367
Q 2163 3669 2039 3770
Q 1916 3872 1756 3872
z
" transform="scale(0.015625)"/>
      <path id="Arial-BoldMT-2e" d="M 459 0
L 459 878
L 1338 878
L 1338 0
L 459 0
z
" transform="scale(0.015625)"/>
      <path id="Arial-BoldMT-39" d="M 291 1059
L 1141 1153
Q 1172 894 1303 769
Q 1434 644 1650 644
Q 1922 644 2112 894
Q 2303 1144 2356 1931
Q 2025 1547 1528 1547
Q 988 1547 595 1964
Q 203 2381 203 3050
Q 203 3747 617 4173
Q 1031 4600 1672 4600
Q 2369 4600 2816 4061
Q 3263 3522 3263 2288
Q 3263 1031 2797 475
Q 2331 -81 1584 -81
Q 1047 -81 715 205
Q 384 491 291 1059
z
M 2278 2978
Q 2278 3403 2083 3637
Q 1888 3872 1631 3872
Q 1388 3872 1227 3680
Q 1066 3488 1066 3050
Q 1066 2606 1241 2398
Q 1416 2191 1678 2191
Q 1931 2191 2104 2391
Q 2278 2591 2278 2978
z
" transform="scale(0.015625)"/>
      <path id="Arial-BoldMT-38" d="M 1025 2472
Q 684 2616 529 2867
Q 375 3119 375 3419
Q 375 3931 733 4265
Q 1091 4600 1750 4600
Q 2403 4600 2764 4265
Q 3125 3931 3125 3419
Q 3125 3100 2959 2851
Q 2794 2603 2494 2472
Q 2875 2319 3073 2025
Q 3272 1731 3272 1347
Q 3272 713 2867 316
Q 2463 -81 1791 -81
Q 1166 -81 750 247
Q 259 634 259 1309
Q 259 1681 443 1992
Q 628 2303 1025 2472
z
M 1206 3356
Q 1206 3094 1354 2947
Q 1503 2800 1750 2800
Q 2000 2800 2150 2948
Q 2300 3097 2300 3359
Q 2300 3606 2151 3754
Q 2003 3903 1759 3903
Q 1506 3903 1356 3753
Q 1206 3603 1206 3356
z
M 1125 1394
Q 1125 1031 1311 828
Q 1497 625 1775 625
Q 2047 625 2225 820
Q 2403 1016 2403 1384
Q 2403 1706 2222 1901
Q 2041 2097 1763 2097
Q 1441 2097 1283 1875
Q 1125 1653 1125 1394
z
" transform="scale(0.015625)"/>
      <path id="Arial-BoldMT-35" d="M 284 1178
L 1159 1269
Q 1197 972 1381 798
Q 1566 625 1806 625
Q 2081 625 2272 848
Q 2463 1072 2463 1522
Q 2463 1944 2273 2155
Q 2084 2366 1781 2366
Q 1403 2366 1103 2031
L 391 2134
L 841 4519
L 3163 4519
L 3163 3697
L 1506 3697
L 1369 2919
Q 1663 3066 1969 3066
Q 2553 3066 2959 2641
Q 3366 2216 3366 1538
Q 3366 972 3038 528
Q 2591 -78 1797 -78
Q 1163 -78 763 262
Q 363 603 284 1178
z
" transform="scale(0.015625)"/>
     </defs>
     <use xlink:href="#Arial-BoldMT-30"/>
     <use xlink:href="#Arial-BoldMT-2e" transform="translate(55.615234 0)"/>
     <use xlink:href="#Arial-BoldMT-39" transform="translate(83.398438 0)"/>
     <use xlink:href="#Arial-BoldMT-38" transform="translate(139.013672 0)"/>
     <use xlink:href="#Arial-BoldMT-35" transform="translate(194.628906 0)"/>
    </g>
   </g>
   <g id="text_11">
    <!-- 0.956 -->
    <g style="fill: #262626" transform="translate(429.460896 31.227145) scale(0.12 -0.12)">
     <defs>
      <path id="Arial-BoldMT-36" d="M 3247 3459
L 2397 3366
Q 2366 3628 2234 3753
Q 2103 3878 1894 3878
Q 1616 3878 1423 3628
Q 1231 3378 1181 2588
Q 1509 2975 1997 2975
Q 2547 2975 2939 2556
Q 3331 2138 3331 1475
Q 3331 772 2918 347
Q 2506 -78 1859 -78
Q 1166 -78 719 461
Q 272 1000 272 2228
Q 272 3488 737 4044
Q 1203 4600 1947 4600
Q 2469 4600 2811 4308
Q 3153 4016 3247 3459
z
M 1256 1544
Q 1256 1116 1453 883
Q 1650 650 1903 650
Q 2147 650 2309 840
Q 2472 1031 2472 1466
Q 2472 1913 2297 2120
Q 2122 2328 1859 2328
Q 1606 2328 1431 2129
Q 1256 1931 1256 1544
z
" transform="scale(0.015625)"/>
     </defs>
     <use xlink:href="#Arial-BoldMT-30"/>
     <use xlink:href="#Arial-BoldMT-2e" transform="translate(55.615234 0)"/>
     <use xlink:href="#Arial-BoldMT-39" transform="translate(83.398438 0)"/>
     <use xlink:href="#Arial-BoldMT-35" transform="translate(139.013672 0)"/>
     <use xlink:href="#Arial-BoldMT-36" transform="translate(194.628906 0)"/>
    </g>
   </g>
   <g id="PathCollection_1">
    <defs>
     <path id="m538d524560" d="M 0 2.5
C 0.663008 2.5 1.29895 2.236584 1.767767 1.767767
C 2.236584 1.29895 2.5 0.663008 2.5 0
C 2.5 -0.663008 2.236584 -1.29895 1.767767 -1.767767
C 1.29895 -2.236584 0.663008 -2.5 0 -2.5
C -0.663008 -2.5 -1.29895 -2.236584 -1.767767 -1.767767
C -2.236584 -1.29895 -2.5 -0.663008 -2.5 0
C -2.5 0.663008 -2.236584 1.29895 -1.767767 1.767767
C -1.29895 2.236584 -0.663008 2.5 0 2.5
z
"/>
    </defs>
    <g clip-path="url(#p4e594478cc)">
     <use xlink:href="#m538d524560" x="216.465935" y="37.213243" style="fill: #263238; fill-opacity: 0.65"/>
     <use xlink:href="#m538d524560" x="163.982747" y="38.855077" style="fill: #263238; fill-opacity: 0.65"/>
    </g>
   </g>
   <g id="PathCollection_2">
    <g clip-path="url(#p4e594478cc)">
     <use xlink:href="#m538d524560" x="441.722904" y="51.640751" style="fill: #263238; fill-opacity: 0.65"/>
     <use xlink:href="#m538d524560" x="427.463634" y="40.538215" style="fill: #263238; fill-opacity: 0.65"/>
    </g>
   </g>
   <g id="text_12">
    <!-- F1 Score: SkLearn Gradient Boosting vs XGBoost -->
    <g style="fill: #262626" transform="translate(138.006094 13.919771) scale(0.15 -0.15)">
     <defs>
      <path id="Arial-BoldMT-46" d="M 472 0
L 472 4581
L 3613 4581
L 3613 3806
L 1397 3806
L 1397 2722
L 3309 2722
L 3309 1947
L 1397 1947
L 1397 0
L 472 0
z
" transform="scale(0.015625)"/>
      <path id="Arial-BoldMT-31" d="M 2519 0
L 1641 0
L 1641 3309
Q 1159 2859 506 2644
L 506 3441
Q 850 3553 1253 3867
Q 1656 4181 1806 4600
L 2519 4600
L 2519 0
z
" transform="scale(0.015625)"/>
      <path id="Arial-BoldMT-20" transform="scale(0.015625)"/>
      <path id="Arial-BoldMT-53" d="M 231 1491
L 1131 1578
Q 1213 1125 1461 912
Q 1709 700 2131 700
Q 2578 700 2804 889
Q 3031 1078 3031 1331
Q 3031 1494 2936 1608
Q 2841 1722 2603 1806
Q 2441 1863 1863 2006
Q 1119 2191 819 2459
Q 397 2838 397 3381
Q 397 3731 595 4036
Q 794 4341 1167 4500
Q 1541 4659 2069 4659
Q 2931 4659 3367 4281
Q 3803 3903 3825 3272
L 2900 3231
Q 2841 3584 2645 3739
Q 2450 3894 2059 3894
Q 1656 3894 1428 3728
Q 1281 3622 1281 3444
Q 1281 3281 1419 3166
Q 1594 3019 2269 2859
Q 2944 2700 3267 2529
Q 3591 2359 3773 2064
Q 3956 1769 3956 1334
Q 3956 941 3737 597
Q 3519 253 3119 86
Q 2719 -81 2122 -81
Q 1253 -81 787 320
Q 322 722 231 1491
z
" transform="scale(0.015625)"/>
      <path id="Arial-BoldMT-63" d="M 3353 2338
L 2488 2181
Q 2444 2441 2289 2572
Q 2134 2703 1888 2703
Q 1559 2703 1364 2476
Q 1169 2250 1169 1719
Q 1169 1128 1367 884
Q 1566 641 1900 641
Q 2150 641 2309 783
Q 2469 925 2534 1272
L 3397 1125
Q 3263 531 2881 228
Q 2500 -75 1859 -75
Q 1131 -75 698 384
Q 266 844 266 1656
Q 266 2478 700 2936
Q 1134 3394 1875 3394
Q 2481 3394 2839 3133
Q 3197 2872 3353 2338
z
" transform="scale(0.015625)"/>
      <path id="Arial-BoldMT-6f" d="M 256 1706
Q 256 2144 472 2553
Q 688 2963 1083 3178
Q 1478 3394 1966 3394
Q 2719 3394 3200 2905
Q 3681 2416 3681 1669
Q 3681 916 3195 420
Q 2709 -75 1972 -75
Q 1516 -75 1102 131
Q 688 338 472 736
Q 256 1134 256 1706
z
M 1156 1659
Q 1156 1166 1390 903
Q 1625 641 1969 641
Q 2313 641 2545 903
Q 2778 1166 2778 1666
Q 2778 2153 2545 2415
Q 2313 2678 1969 2678
Q 1625 2678 1390 2415
Q 1156 2153 1156 1659
z
" transform="scale(0.015625)"/>
      <path id="Arial-BoldMT-72" d="M 1300 0
L 422 0
L 422 3319
L 1238 3319
L 1238 2847
Q 1447 3181 1614 3287
Q 1781 3394 1994 3394
Q 2294 3394 2572 3228
L 2300 2463
Q 2078 2606 1888 2606
Q 1703 2606 1575 2504
Q 1447 2403 1373 2137
Q 1300 1872 1300 1025
L 1300 0
z
" transform="scale(0.015625)"/>
      <path id="Arial-BoldMT-65" d="M 2381 1056
L 3256 909
Q 3088 428 2723 176
Q 2359 -75 1813 -75
Q 947 -75 531 491
Q 203 944 203 1634
Q 203 2459 634 2926
Q 1066 3394 1725 3394
Q 2466 3394 2894 2905
Q 3322 2416 3303 1406
L 1103 1406
Q 1113 1016 1316 798
Q 1519 581 1822 581
Q 2028 581 2168 693
Q 2309 806 2381 1056
z
M 2431 1944
Q 2422 2325 2234 2523
Q 2047 2722 1778 2722
Q 1491 2722 1303 2513
Q 1116 2303 1119 1944
L 2431 1944
z
" transform="scale(0.015625)"/>
      <path id="Arial-BoldMT-3a" d="M 628 2441
L 628 3319
L 1506 3319
L 1506 2441
L 628 2441
z
M 628 0
L 628 878
L 1506 878
L 1506 0
L 628 0
z
" transform="scale(0.015625)"/>
      <path id="Arial-BoldMT-6b" d="M 428 0
L 428 4581
L 1306 4581
L 1306 2150
L 2334 3319
L 3416 3319
L 2281 2106
L 3497 0
L 2550 0
L 1716 1491
L 1306 1063
L 1306 0
L 428 0
z
" transform="scale(0.015625)"/>
      <path id="Arial-BoldMT-4c" d="M 491 0
L 491 4544
L 1416 4544
L 1416 772
L 3716 772
L 3716 0
L 491 0
z
" transform="scale(0.015625)"/>
      <path id="Arial-BoldMT-61" d="M 1116 2306
L 319 2450
Q 453 2931 781 3162
Q 1109 3394 1756 3394
Q 2344 3394 2631 3255
Q 2919 3116 3036 2902
Q 3153 2688 3153 2116
L 3144 1091
Q 3144 653 3186 445
Q 3228 238 3344 0
L 2475 0
Q 2441 88 2391 259
Q 2369 338 2359 363
Q 2134 144 1878 34
Q 1622 -75 1331 -75
Q 819 -75 523 203
Q 228 481 228 906
Q 228 1188 362 1408
Q 497 1628 739 1745
Q 981 1863 1438 1950
Q 2053 2066 2291 2166
L 2291 2253
Q 2291 2506 2166 2614
Q 2041 2722 1694 2722
Q 1459 2722 1328 2630
Q 1197 2538 1116 2306
z
M 2291 1594
Q 2122 1538 1756 1459
Q 1391 1381 1278 1306
Q 1106 1184 1106 997
Q 1106 813 1243 678
Q 1381 544 1594 544
Q 1831 544 2047 700
Q 2206 819 2256 991
Q 2291 1103 2291 1419
L 2291 1594
z
" transform="scale(0.015625)"/>
      <path id="Arial-BoldMT-6e" d="M 3478 0
L 2600 0
L 2600 1694
Q 2600 2231 2544 2389
Q 2488 2547 2361 2634
Q 2234 2722 2056 2722
Q 1828 2722 1647 2597
Q 1466 2472 1398 2265
Q 1331 2059 1331 1503
L 1331 0
L 453 0
L 453 3319
L 1269 3319
L 1269 2831
Q 1703 3394 2363 3394
Q 2653 3394 2893 3289
Q 3134 3184 3257 3021
Q 3381 2859 3429 2653
Q 3478 2447 3478 2063
L 3478 0
z
" transform="scale(0.015625)"/>
      <path id="Arial-BoldMT-47" d="M 2597 1684
L 2597 2456
L 4591 2456
L 4591 631
Q 4300 350 3748 136
Q 3197 -78 2631 -78
Q 1913 -78 1378 223
Q 844 525 575 1086
Q 306 1647 306 2306
Q 306 3022 606 3578
Q 906 4134 1484 4431
Q 1925 4659 2581 4659
Q 3434 4659 3914 4301
Q 4394 3944 4531 3313
L 3613 3141
Q 3516 3478 3248 3673
Q 2981 3869 2581 3869
Q 1975 3869 1617 3484
Q 1259 3100 1259 2344
Q 1259 1528 1621 1120
Q 1984 713 2572 713
Q 2863 713 3155 827
Q 3447 941 3656 1103
L 3656 1684
L 2597 1684
z
" transform="scale(0.015625)"/>
      <path id="Arial-BoldMT-64" d="M 3503 0
L 2688 0
L 2688 488
Q 2484 203 2207 64
Q 1931 -75 1650 -75
Q 1078 -75 670 386
Q 263 847 263 1672
Q 263 2516 659 2955
Q 1056 3394 1663 3394
Q 2219 3394 2625 2931
L 2625 4581
L 3503 4581
L 3503 0
z
M 1159 1731
Q 1159 1200 1306 963
Q 1519 619 1900 619
Q 2203 619 2415 876
Q 2628 1134 2628 1647
Q 2628 2219 2422 2470
Q 2216 2722 1894 2722
Q 1581 2722 1370 2473
Q 1159 2225 1159 1731
z
" transform="scale(0.015625)"/>
      <path id="Arial-BoldMT-69" d="M 459 3769
L 459 4581
L 1338 4581
L 1338 3769
L 459 3769
z
M 459 0
L 459 3319
L 1338 3319
L 1338 0
L 459 0
z
" transform="scale(0.015625)"/>
      <path id="Arial-BoldMT-74" d="M 1981 3319
L 1981 2619
L 1381 2619
L 1381 1281
Q 1381 875 1398 808
Q 1416 741 1477 697
Q 1538 653 1625 653
Q 1747 653 1978 738
L 2053 56
Q 1747 -75 1359 -75
Q 1122 -75 931 4
Q 741 84 652 211
Q 563 338 528 553
Q 500 706 500 1172
L 500 2619
L 97 2619
L 97 3319
L 500 3319
L 500 3978
L 1381 4491
L 1381 3319
L 1981 3319
z
" transform="scale(0.015625)"/>
      <path id="Arial-BoldMT-42" d="M 469 4581
L 2300 4581
Q 2844 4581 3111 4536
Q 3378 4491 3589 4347
Q 3800 4203 3940 3964
Q 4081 3725 4081 3428
Q 4081 3106 3907 2837
Q 3734 2569 3438 2434
Q 3856 2313 4081 2019
Q 4306 1725 4306 1328
Q 4306 1016 4161 720
Q 4016 425 3764 248
Q 3513 72 3144 31
Q 2913 6 2028 0
L 469 0
L 469 4581
z
M 1394 3819
L 1394 2759
L 2000 2759
Q 2541 2759 2672 2775
Q 2909 2803 3045 2939
Q 3181 3075 3181 3297
Q 3181 3509 3064 3642
Q 2947 3775 2716 3803
Q 2578 3819 1925 3819
L 1394 3819
z
M 1394 1997
L 1394 772
L 2250 772
Q 2750 772 2884 800
Q 3091 838 3220 983
Q 3350 1128 3350 1372
Q 3350 1578 3250 1722
Q 3150 1866 2961 1931
Q 2772 1997 2141 1997
L 1394 1997
z
" transform="scale(0.015625)"/>
      <path id="Arial-BoldMT-73" d="M 150 947
L 1031 1081
Q 1088 825 1259 692
Q 1431 559 1741 559
Q 2081 559 2253 684
Q 2369 772 2369 919
Q 2369 1019 2306 1084
Q 2241 1147 2013 1200
Q 950 1434 666 1628
Q 272 1897 272 2375
Q 272 2806 612 3100
Q 953 3394 1669 3394
Q 2350 3394 2681 3172
Q 3013 2950 3138 2516
L 2309 2363
Q 2256 2556 2107 2659
Q 1959 2763 1684 2763
Q 1338 2763 1188 2666
Q 1088 2597 1088 2488
Q 1088 2394 1175 2328
Q 1294 2241 1995 2081
Q 2697 1922 2975 1691
Q 3250 1456 3250 1038
Q 3250 581 2869 253
Q 2488 -75 1741 -75
Q 1063 -75 667 200
Q 272 475 150 947
z
" transform="scale(0.015625)"/>
      <path id="Arial-BoldMT-67" d="M 378 -219
L 1381 -341
Q 1406 -516 1497 -581
Q 1622 -675 1891 -675
Q 2234 -675 2406 -572
Q 2522 -503 2581 -350
Q 2622 -241 2622 53
L 2622 538
Q 2228 0 1628 0
Q 959 0 569 566
Q 263 1013 263 1678
Q 263 2513 664 2953
Q 1066 3394 1663 3394
Q 2278 3394 2678 2853
L 2678 3319
L 3500 3319
L 3500 341
Q 3500 -247 3403 -537
Q 3306 -828 3131 -993
Q 2956 -1159 2664 -1253
Q 2372 -1347 1925 -1347
Q 1081 -1347 728 -1058
Q 375 -769 375 -325
Q 375 -281 378 -219
z
M 1163 1728
Q 1163 1200 1367 954
Q 1572 709 1872 709
Q 2194 709 2416 961
Q 2638 1213 2638 1706
Q 2638 2222 2425 2472
Q 2213 2722 1888 2722
Q 1572 2722 1367 2476
Q 1163 2231 1163 1728
z
" transform="scale(0.015625)"/>
      <path id="Arial-BoldMT-76" d="M 1372 0
L 34 3319
L 956 3319
L 1581 1625
L 1763 1059
Q 1834 1275 1853 1344
Q 1897 1484 1947 1625
L 2578 3319
L 3481 3319
L 2163 0
L 1372 0
z
" transform="scale(0.015625)"/>
      <path id="Arial-BoldMT-58" d="M 0 0
L 1566 2391
L 147 4581
L 1228 4581
L 2147 3109
L 3047 4581
L 4119 4581
L 2694 2356
L 4259 0
L 3144 0
L 2128 1584
L 1109 0
L 0 0
z
" transform="scale(0.015625)"/>
     </defs>
     <use xlink:href="#Arial-BoldMT-46"/>
     <use xlink:href="#Arial-BoldMT-31" transform="translate(61.083984 0)"/>
     <use xlink:href="#Arial-BoldMT-20" transform="translate(116.699219 0)"/>
     <use xlink:href="#Arial-BoldMT-53" transform="translate(144.482422 0)"/>
     <use xlink:href="#Arial-BoldMT-63" transform="translate(211.181641 0)"/>
     <use xlink:href="#Arial-BoldMT-6f" transform="translate(266.796875 0)"/>
     <use xlink:href="#Arial-BoldMT-72" transform="translate(327.880859 0)"/>
     <use xlink:href="#Arial-BoldMT-65" transform="translate(366.796875 0)"/>
     <use xlink:href="#Arial-BoldMT-3a" transform="translate(422.412109 0)"/>
     <use xlink:href="#Arial-BoldMT-20" transform="translate(455.712891 0)"/>
     <use xlink:href="#Arial-BoldMT-53" transform="translate(483.496094 0)"/>
     <use xlink:href="#Arial-BoldMT-6b" transform="translate(550.195312 0)"/>
     <use xlink:href="#Arial-BoldMT-4c" transform="translate(605.810547 0)"/>
     <use xlink:href="#Arial-BoldMT-65" transform="translate(666.894531 0)"/>
     <use xlink:href="#Arial-BoldMT-61" transform="translate(722.509766 0)"/>
     <use xlink:href="#Arial-BoldMT-72" transform="translate(778.125 0)"/>
     <use xlink:href="#Arial-BoldMT-6e" transform="translate(817.041016 0)"/>
     <use xlink:href="#Arial-BoldMT-20" transform="translate(878.125 0)"/>
     <use xlink:href="#Arial-BoldMT-47" transform="translate(905.908203 0)"/>
     <use xlink:href="#Arial-BoldMT-72" transform="translate(983.691406 0)"/>
     <use xlink:href="#Arial-BoldMT-61" transform="translate(1022.607422 0)"/>
     <use xlink:href="#Arial-BoldMT-64" transform="translate(1078.222656 0)"/>
     <use xlink:href="#Arial-BoldMT-69" transform="translate(1139.306641 0)"/>
     <use xlink:href="#Arial-BoldMT-65" transform="translate(1167.089844 0)"/>
     <use xlink:href="#Arial-BoldMT-6e" transform="translate(1222.705078 0)"/>
     <use xlink:href="#Arial-BoldMT-74" transform="translate(1283.789062 0)"/>
     <use xlink:href="#Arial-BoldMT-20" transform="translate(1317.089844 0)"/>
     <use xlink:href="#Arial-BoldMT-42" transform="translate(1344.873047 0)"/>
     <use xlink:href="#Arial-BoldMT-6f" transform="translate(1417.089844 0)"/>
     <use xlink:href="#Arial-BoldMT-6f" transform="translate(1478.173828 0)"/>
     <use xlink:href="#Arial-BoldMT-73" transform="translate(1539.257812 0)"/>
     <use xlink:href="#Arial-BoldMT-74" transform="translate(1594.873047 0)"/>
     <use xlink:href="#Arial-BoldMT-69" transform="translate(1628.173828 0)"/>
     <use xlink:href="#Arial-BoldMT-6e" transform="translate(1655.957031 0)"/>
     <use xlink:href="#Arial-BoldMT-67" transform="translate(1717.041016 0)"/>
     <use xlink:href="#Arial-BoldMT-20" transform="translate(1778.125 0)"/>
     <use xlink:href="#Arial-BoldMT-76" transform="translate(1805.908203 0)"/>
     <use xlink:href="#Arial-BoldMT-73" transform="translate(1861.523438 0)"/>
     <use xlink:href="#Arial-BoldMT-20" transform="translate(1917.138672 0)"/>
     <use xlink:href="#Arial-BoldMT-58" transform="translate(1944.921875 0)"/>
     <use xlink:href="#Arial-BoldMT-47" transform="translate(2011.621094 0)"/>
     <use xlink:href="#Arial-BoldMT-42" transform="translate(2089.404297 0)"/>
     <use xlink:href="#Arial-BoldMT-6f" transform="translate(2161.621094 0)"/>
     <use xlink:href="#Arial-BoldMT-6f" transform="translate(2222.705078 0)"/>
     <use xlink:href="#Arial-BoldMT-73" transform="translate(2283.789062 0)"/>
     <use xlink:href="#Arial-BoldMT-74" transform="translate(2339.404297 0)"/>
    </g>
   </g>
  </g>
 </g>
 <defs>
  <clipPath id="p4e594478cc">
   <rect x="58.896803" y="19.919771" width="514.102958" height="291.603708"/>
  </clipPath>
 </defs>
</svg>
